<svg viewBox="0 0 24 24" fill="none" xmlns="http://www.w3.org/2000/svg">
  <path fill-rule="evenodd" clip-rule="evenodd" d="M3.5 3.5C2 5 2 7.3 2 12s0 7 1.5 8.5S7.3 22 12 22s7 0 8.5-1.5S22 16.7 22 12s0-7-1.5-8.5S16.7 2 12 2 5 2 3.5 3.5zM6.5 18.5c.6 0 1-.4 1-1V10c0-.6-.4-1-1-1h-.5c-.6 0-1 .4-1 1v7.5c0 .6.4 1 1 1h.5zm5.5 0c.6 0 1-.4 1-1V7.5c0-.6-.4-1-1-1h-.5c-.6 0-1 .4-1 1V17.5c0 .6.4 1 1 1h.5zm5.5 0c.6 0 1-.4 1-1V5c0-.6-.4-1-1-1h-.5c-.6 0-1 .4-1 1V17.5c0 .6.4 1 1 1h.5z" fill="#7e7c7d"></path>
</svg>
